<?xml version="1.0" standalone="no"?>
<!DOCTYPE svg PUBLIC "-//W3C//DTD SVG 20010904//EN"
 "http://www.w3.org/TR/2001/REC-SVG-20010904/DTD/svg10.dtd">
<svg version="1.0" xmlns="http://www.w3.org/2000/svg"
 width="512.000000pt" height="512.000000pt" viewBox="0 0 512.000000 512.000000"
 preserveAspectRatio="xMidYMid meet">
<metadata>
Created by potrace 1.14, written by Peter Selinger 2001-2017
</metadata>
<g transform="translate(0.000000,512.000000) scale(0.100000,-0.100000)"
fill="#000000" stroke="none">
<path d="M2393 5105 c-250 -45 -489 -200 -624 -405 -221 -334 -220 -746 2
-1074 l60 -89 -124 -125 -124 -124 -84 58 c-96 65 -183 107 -284 135 -437 121
-904 -83 -1109 -486 -303 -598 78 -1305 747 -1385 205 -24 416 23 604 137 39
24 75 43 80 43 11 0 253 -243 253 -254 0 -4 -20 -40 -44 -80 -94 -150 -140
-314 -140 -496 0 -203 53 -376 165 -542 402 -592 1299 -540 1634 95 166 315
145 683 -56 981 l-60 89 124 125 125 125 49 -35 c339 -248 773 -259 1115 -27
138 94 246 221 322 380 284 589 -98 1279 -754 1359 -208 25 -425 -24 -606
-136 -40 -24 -76 -44 -81 -44 -11 0 -253 242 -253 253 0 5 19 41 43 80 114
189 161 398 137 604 -24 198 -105 384 -231 527 -33 38 -47 46 -75 46 -43 0
-74 -30 -74 -70 0 -21 16 -49 55 -97 68 -84 128 -203 156 -308 30 -113 30
-289 0 -400 -98 -364 -408 -605 -781 -605 -355 0 -665 226 -768 562 -120 388
57 791 425 970 192 92 442 101 637 22 73 -29 86 -30 120 -3 39 31 34 85 -12
116 -112 75 -382 112 -569 78z m956 -1759 l124 -125 -34 -38 c-82 -91 -153
-222 -196 -360 -25 -81 -27 -101 -27 -263 0 -162 2 -182 27 -263 33 -106 83
-209 144 -296 l46 -63 -126 -125 -125 -126 -63 46 c-88 61 -192 112 -296 143
-70 21 -117 27 -225 31 -75 3 -148 3 -163 -1 -61 -15 -85 -81 -45 -124 19 -20
30 -22 148 -22 240 0 416 -67 575 -219 112 -106 187 -233 228 -386 27 -103 30
-278 6 -378 -79 -321 -319 -549 -645 -613 -405 -79 -815 185 -924 594 -29 109
-28 287 1 397 53 199 178 373 344 479 59 38 77 60 77 96 0 28 -43 70 -73 70
-28 0 -126 -61 -187 -116 l-41 -38 -126 127 -127 126 38 41 c78 86 152 223
193 357 25 81 27 101 27 263 0 162 -2 182 -27 263 -33 106 -83 209 -144 296
l-46 63 125 125 125 125 69 -48 c86 -59 206 -116 304 -144 107 -31 316 -39
431 -15 155 31 331 115 429 203 25 23 47 41 50 42 3 0 61 -56 129 -124z
m-2191 -7 c358 -91 602 -408 602 -779 0 -373 -241 -683 -605 -781 -110 -29
-288 -30 -397 -1 -228 61 -419 217 -522 427 -55 112 -76 192 -83 320 -19 351
205 680 540 796 151 52 309 58 465 18z m3102 20 c354 -44 626 -301 696 -657
79 -405 -185 -815 -594 -924 -109 -29 -287 -28 -397 1 -364 98 -605 408 -605
781 0 216 73 400 219 553 128 135 292 219 476 246 86 12 110 12 205 0z"/>
<path d="M2029 1172 c-68 -56 20 -176 148 -202 99 -21 205 10 263 76 82 94
-16 197 -103 110 -38 -37 -81 -51 -128 -41 -18 4 -47 22 -66 41 -39 39 -78 44
-114 16z"/>
<path d="M2670 1170 c-67 -67 31 -184 172 -205 126 -19 271 65 271 157 0 38
-33 68 -74 68 -19 0 -40 -11 -62 -34 -38 -37 -81 -51 -128 -41 -18 4 -47 22
-66 41 -39 40 -82 45 -113 14z"/>
<path d="M2413 751 c-83 -23 -101 -31 -165 -78 -85 -61 -106 -153 -42 -182 40
-18 52 -14 103 34 76 71 127 89 251 89 124 0 175 -18 251 -89 51 -48 63 -52
103 -34 67 31 42 122 -52 189 -112 81 -302 110 -449 71z"/>
<path d="M529 2868 c-38 -13 -57 -62 -38 -97 18 -33 181 -120 227 -121 40 0
72 30 72 68 0 41 -16 57 -105 101 -111 55 -126 60 -156 49z"/>
<path d="M1253 2831 c-131 -64 -156 -99 -112 -155 14 -17 30 -26 49 -26 33 0
194 74 222 102 36 36 14 107 -38 122 -13 4 -55 -11 -121 -43z"/>
<path d="M815 2356 c-78 -19 -139 -51 -188 -95 -57 -53 -74 -90 -57 -130 24
-60 92 -57 144 5 60 73 230 105 362 69 51 -14 77 -28 120 -68 63 -57 105 -65
136 -26 62 75 -54 198 -229 243 -72 19 -216 20 -288 2z"/>
<path d="M3813 2785 c-37 -16 -43 -30 -43 -111 0 -76 20 -104 74 -104 51 0 76
36 76 110 0 89 -43 132 -107 105z"/>
<path d="M4453 2785 c-37 -16 -43 -30 -43 -111 0 -76 20 -104 74 -104 51 0 76
36 76 110 0 89 -43 132 -107 105z"/>
<path d="M3870 2290 c-25 -25 -26 -71 -1 -101 l19 -24 272 0 272 0 24 28 c29
34 30 56 3 91 l-20 26 -275 0 c-261 0 -275 -1 -294 -20z"/>
<path d="M2142 4461 c-90 -31 -153 -110 -132 -165 21 -55 81 -60 133 -11 63
59 133 59 193 -1 60 -60 134 -36 134 43 0 30 -8 44 -45 79 -73 71 -178 91
-283 55z"/>
<path d="M2787 4464 c-29 -9 -65 -31 -92 -58 -37 -35 -45 -49 -45 -79 0 -79
74 -103 134 -43 59 60 141 58 199 -4 43 -45 96 -40 123 11 12 25 12 33 1 62
-42 99 -190 151 -320 111z"/>
<path d="M2210 3967 c-14 -7 -31 -25 -38 -40 -11 -23 -11 -32 4 -62 33 -70
147 -142 263 -166 81 -17 243 -7 311 20 160 61 245 170 182 233 -35 35 -77 28
-121 -20 -62 -68 -115 -86 -251 -86 -134 0 -188 18 -249 83 -43 46 -67 55
-101 38z"/>
</g>
</svg>
